<?xml version="1.0" encoding="utf-8" standalone="no"?>
<!DOCTYPE svg PUBLIC "-//W3C//DTD SVG 1.1//EN"
  "http://www.w3.org/Graphics/SVG/1.1/DTD/svg11.dtd">
<svg xmlns:xlink="http://www.w3.org/1999/xlink" width="227.956503pt" height="142.6125pt" viewBox="0 0 227.956503 142.6125" xmlns="http://www.w3.org/2000/svg" version="1.1">
 <metadata>
  <rdf:RDF xmlns:dc="http://purl.org/dc/elements/1.1/" xmlns:cc="http://creativecommons.org/ns#" xmlns:rdf="http://www.w3.org/1999/02/22-rdf-syntax-ns#">
   <cc:Work>
    <dc:type rdf:resource="http://purl.org/dc/dcmitype/StillImage"/>
    <dc:date>2026-08-13T02:08:57.668181</dc:date>
    <dc:format>image/svg+xml</dc:format>
    <dc:creator>
     <cc:Agent>
      <dc:title>Matplotlib v3.10.1, https://matplotlib.org/</dc:title>
     </cc:Agent>
    </dc:creator>
   </cc:Work>
  </rdf:RDF>
 </metadata>
 <defs>
  <style type="text/css">*{stroke-linejoin: round; stroke-linecap: butt}</style>
 </defs>
 <g id="figure_1">
  <g id="patch_1">
   <path d="M 0 142.6125 
L 227.956503 142.6125 
L 227.956503 0 
L 0 0 
z
" style="fill: #ffffff"/>
  </g>
  <g id="axes_1">
   <g id="patch_2">
    <path d="M 27.78 128.5525 
L 223.575682 128.5525 
L 223.575682 1.08 
L 27.78 1.08 
z
" style="fill: #ffffff"/>
   </g>
   <g id="matplotlib.axis_1">
    <g id="xtick_1">
     <g id="line2d_1">
      <defs>
       <path id="m36799ad753" d="M 0 0 
L 0 3 
" style="stroke: #000000; stroke-width: 0.8"/>
      </defs>
      <g>
       <use xlink:href="#m36799ad753" x="40.738346" y="128.5525" style="stroke: #000000; stroke-width: 0.8"/>
      </g>
     </g>
     <g id="text_1">
      <text style="font-size: 7.2px; font-family: 'STIXGeneral', 'DejaVu Serif', 'Times New Roman', serif; text-anchor: middle" x="40.738346" y="139.969875" transform="rotate(-0 40.738346 139.969875)">Matched</text>
     </g>
    </g>
    <g id="xtick_2">
     <g id="line2d_2">
      <g>
       <use xlink:href="#m36799ad753" x="98.717523" y="128.5525" style="stroke: #000000; stroke-width: 0.8"/>
      </g>
     </g>
     <g id="text_2">
      <text style="font-size: 7.2px; font-family: 'STIXGeneral', 'DejaVu Serif', 'Times New Roman', serif; text-anchor: middle" x="98.717523" y="139.969875" transform="rotate(-0 98.717523 139.969875)">Mismatched</text>
     </g>
    </g>
    <g id="xtick_3">
     <g id="line2d_3">
      <g>
       <use xlink:href="#m36799ad753" x="156.696701" y="128.5525" style="stroke: #000000; stroke-width: 0.8"/>
      </g>
     </g>
     <g id="text_3">
      <text style="font-size: 7.2px; font-family: 'STIXGeneral', 'DejaVu Serif', 'Times New Roman', serif; text-anchor: middle" x="156.696701" y="139.969875" transform="rotate(-0 156.696701 139.969875)">Dense–Dense</text>
     </g>
    </g>
    <g id="xtick_4">
     <g id="line2d_4">
      <g>
       <use xlink:href="#m36799ad753" x="214.675878" y="128.5525" style="stroke: #000000; stroke-width: 0.8"/>
      </g>
     </g>
     <g id="text_4">
      <text style="font-size: 7.2px; font-family: 'STIXGeneral', 'DejaVu Serif', 'Times New Roman', serif; text-anchor: middle" x="214.675878" y="139.969875" transform="rotate(-0 214.675878 139.969875)">Random</text>
     </g>
    </g>
   </g>
   <g id="matplotlib.axis_2">
    <g id="ytick_1">
     <g id="line2d_5">
      <path d="M 27.78 109.311368 
L 223.575682 109.311368 
" clip-path="url(#p365b8bffee)" style="fill: none; stroke-dasharray: 0.6,0.99; stroke-dashoffset: 0; stroke: #c9d2dc; stroke-opacity: 0.32; stroke-width: 0.6"/>
     </g>
     <g id="line2d_6">
      <defs>
       <path id="m89cb534d6b" d="M 0 0 
L -3 0 
" style="stroke: #000000; stroke-width: 0.8"/>
      </defs>
      <g>
       <use xlink:href="#m89cb534d6b" x="27.78" y="109.311368" style="stroke: #000000; stroke-width: 0.8"/>
      </g>
     </g>
     <g id="text_5">
      <text style="font-size: 7.2px; font-family: 'STIXGeneral', 'DejaVu Serif', 'Times New Roman', serif; text-anchor: end" x="21.28" y="111.770055" transform="rotate(-0 21.28 111.770055)">0.3</text>
     </g>
    </g>
    <g id="ytick_2">
     <g id="line2d_7">
      <path d="M 27.78 85.259953 
L 223.575682 85.259953 
" clip-path="url(#p365b8bffee)" style="fill: none; stroke-dasharray: 0.6,0.99; stroke-dashoffset: 0; stroke: #c9d2dc; stroke-opacity: 0.32; stroke-width: 0.6"/>
     </g>
     <g id="line2d_8">
      <g>
       <use xlink:href="#m89cb534d6b" x="27.78" y="85.259953" style="stroke: #000000; stroke-width: 0.8"/>
      </g>
     </g>
     <g id="text_6">
      <text style="font-size: 7.2px; font-family: 'STIXGeneral', 'DejaVu Serif', 'Times New Roman', serif; text-anchor: end" x="21.28" y="87.71864" transform="rotate(-0 21.28 87.71864)">0.4</text>
     </g>
    </g>
    <g id="ytick_3">
     <g id="line2d_9">
      <path d="M 27.78 61.208538 
L 223.575682 61.208538 
" clip-path="url(#p365b8bffee)" style="fill: none; stroke-dasharray: 0.6,0.99; stroke-dashoffset: 0; stroke: #c9d2dc; stroke-opacity: 0.32; stroke-width: 0.6"/>
     </g>
     <g id="line2d_10">
      <g>
       <use xlink:href="#m89cb534d6b" x="27.78" y="61.208538" style="stroke: #000000; stroke-width: 0.8"/>
      </g>
     </g>
     <g id="text_7">
      <text style="font-size: 7.2px; font-family: 'STIXGeneral', 'DejaVu Serif', 'Times New Roman', serif; text-anchor: end" x="21.28" y="63.667225" transform="rotate(-0 21.28 63.667225)">0.5</text>
     </g>
    </g>
    <g id="ytick_4">
     <g id="line2d_11">
      <path d="M 27.78 37.157123 
L 223.575682 37.157123 
" clip-path="url(#p365b8bffee)" style="fill: none; stroke-dasharray: 0.6,0.99; stroke-dashoffset: 0; stroke: #c9d2dc; stroke-opacity: 0.32; stroke-width: 0.6"/>
     </g>
     <g id="line2d_12">
      <g>
       <use xlink:href="#m89cb534d6b" x="27.78" y="37.157123" style="stroke: #000000; stroke-width: 0.8"/>
      </g>
     </g>
     <g id="text_8">
      <text style="font-size: 7.2px; font-family: 'STIXGeneral', 'DejaVu Serif', 'Times New Roman', serif; text-anchor: end" x="21.28" y="39.61581" transform="rotate(-0 21.28 39.61581)">0.6</text>
     </g>
    </g>
    <g id="ytick_5">
     <g id="line2d_13">
      <path d="M 27.78 13.105708 
L 223.575682 13.105708 
" clip-path="url(#p365b8bffee)" style="fill: none; stroke-dasharray: 0.6,0.99; stroke-dashoffset: 0; stroke: #c9d2dc; stroke-opacity: 0.32; stroke-width: 0.6"/>
     </g>
     <g id="line2d_14">
      <g>
       <use xlink:href="#m89cb534d6b" x="27.78" y="13.105708" style="stroke: #000000; stroke-width: 0.8"/>
      </g>
     </g>
     <g id="text_9">
      <text style="font-size: 7.2px; font-family: 'STIXGeneral', 'DejaVu Serif', 'Times New Roman', serif; text-anchor: end" x="21.28" y="15.564395" transform="rotate(-0 21.28 15.564395)">0.7</text>
     </g>
    </g>
    <g id="text_10">
     <text style="font-size: 8px; font-family: 'STIXGeneral', 'DejaVu Serif', 'Times New Roman', serif; text-anchor: middle" x="6.54375" y="64.81625" transform="rotate(-90 6.54375 64.81625)">Jaccard</text>
    </g>
   </g>
   <g id="patch_3">
    <path d="M 27.78 128.5525 
L 27.78 1.08 
" style="fill: none; stroke: #37475a; stroke-width: 0.8; stroke-linejoin: miter; stroke-linecap: square"/>
   </g>
   <g id="patch_4">
    <path d="M 27.78 128.5525 
L 223.575682 128.5525 
" style="fill: none; stroke: #37475a; stroke-width: 0.8; stroke-linejoin: miter; stroke-linecap: square"/>
   </g>
   <g id="LineCollection_1">
    <path d="M 40.738346 39.476557 
L 40.738346 34.837688 
" clip-path="url(#p365b8bffee)" style="fill: none; stroke: #8a5a1e; stroke-width: 1.6"/>
   </g>
   <g id="line2d_15">
    <defs>
     <path id="m5e3b0b67ed" d="M 3 0 
L -3 -0 
" style="stroke: #8a5a1e"/>
    </defs>
    <g clip-path="url(#p365b8bffee)">
     <use xlink:href="#m5e3b0b67ed" x="40.738346" y="39.476557" style="fill: #8a5a1e; stroke: #8a5a1e"/>
    </g>
   </g>
   <g id="line2d_16">
    <g clip-path="url(#p365b8bffee)">
     <use xlink:href="#m5e3b0b67ed" x="40.738346" y="34.837688" style="fill: #8a5a1e; stroke: #8a5a1e"/>
    </g>
   </g>
   <g id="text_11">
    <text style="font-size: 7px; font-family: 'STIXGeneral', 'DejaVu Serif', 'Times New Roman', serif; text-anchor: middle; fill: #8a5a1e" x="40.738346" y="29.941698" transform="rotate(-0 40.738346 29.941698)">0.600±0.010</text>
   </g>
   <g id="LineCollection_2">
    <path d="M 98.717523 82.350884 
L 98.717523 78.388113 
" clip-path="url(#p365b8bffee)" style="fill: none; stroke: #3d6aa2; stroke-width: 1.6"/>
   </g>
   <g id="line2d_17">
    <defs>
     <path id="ma1e30cc650" d="M 3 0 
L -3 -0 
" style="stroke: #3d6aa2"/>
    </defs>
    <g clip-path="url(#p365b8bffee)">
     <use xlink:href="#ma1e30cc650" x="98.717523" y="82.350884" style="fill: #3d6aa2; stroke: #3d6aa2"/>
    </g>
   </g>
   <g id="line2d_18">
    <g clip-path="url(#p365b8bffee)">
     <use xlink:href="#ma1e30cc650" x="98.717523" y="78.388113" style="fill: #3d6aa2; stroke: #3d6aa2"/>
    </g>
   </g>
   <g id="text_12">
    <text style="font-size: 7px; font-family: 'STIXGeneral', 'DejaVu Serif', 'Times New Roman', serif; text-anchor: middle; fill: #3d6aa2" x="98.717523" y="73.154074" transform="rotate(-0 98.717523 73.154074)">0.420±0.008</text>
   </g>
   <g id="LineCollection_3">
    <path d="M 156.696701 81.854894 
L 156.696701 79.685817 
" clip-path="url(#p365b8bffee)" style="fill: none; stroke: #4f8055; stroke-width: 1.6"/>
   </g>
   <g id="line2d_19">
    <defs>
     <path id="m2850530cc3" d="M 3 0 
L -3 -0 
" style="stroke: #4f8055"/>
    </defs>
    <g clip-path="url(#p365b8bffee)">
     <use xlink:href="#m2850530cc3" x="156.696701" y="81.854894" style="fill: #4f8055; stroke: #4f8055"/>
    </g>
   </g>
   <g id="line2d_20">
    <g clip-path="url(#p365b8bffee)">
     <use xlink:href="#m2850530cc3" x="156.696701" y="79.685817" style="fill: #4f8055; stroke: #4f8055"/>
    </g>
   </g>
   <g id="text_13">
    <text style="font-size: 7px; font-family: 'STIXGeneral', 'DejaVu Serif', 'Times New Roman', serif; text-anchor: middle; fill: #4f8055" x="156.696701" y="73.554931" transform="rotate(-0 156.696701 73.554931)">0.419±0.005</text>
   </g>
   <g id="PathCollection_1">
    <defs>
     <path id="mf695ed84fd" d="M -0 3.872983 
L 3.872983 0 
L 0 -3.872983 
L -3.872983 -0 
z
" style="stroke: #6a7787"/>
    </defs>
    <g clip-path="url(#p365b8bffee)">
     <use xlink:href="#mf695ed84fd" x="214.675878" y="121.337075" style="fill: #6a7787; stroke: #6a7787"/>
    </g>
   </g>
   <g id="text_14">
    <text style="font-size: 7px; font-family: 'STIXGeneral', 'DejaVu Serif', 'Times New Roman', serif; text-anchor: middle; fill: #6a7787" x="214.675878" y="114.121651" transform="rotate(-0 214.675878 114.121651)">0.250</text>
   </g>
   <g id="text_15">
    <text style="font-weight: 700; font-size: 7px; font-family: 'STIXGeneral', 'DejaVu Serif', 'Times New Roman', serif; text-anchor: start; fill: #37475a" x="33.65387" y="9.635738" transform="rotate(-0 33.65387 9.635738)">matched − mismatched = 0.180±0.012</text>
   </g>
   <g id="line2d_21">
    <defs>
     <path id="m4dd5c4fb52" d="M 0 3 
C 0.795609 3 1.55874 2.683901 2.12132 2.12132 
C 2.683901 1.55874 3 0.795609 3 0 
C 3 -0.795609 2.683901 -1.55874 2.12132 -2.12132 
C 1.55874 -2.683901 0.795609 -3 0 -3 
C -0.795609 -3 -1.55874 -2.683901 -2.12132 -2.12132 
C -2.683901 -1.55874 -3 -0.795609 -3 0 
C -3 0.795609 -2.683901 1.55874 -2.12132 2.12132 
C -1.55874 2.683901 -0.795609 3 0 3 
z
" style="stroke: #8a5a1e"/>
    </defs>
    <g clip-path="url(#p365b8bffee)">
     <use xlink:href="#m4dd5c4fb52" x="40.738346" y="37.157123" style="fill: #8a5a1e; stroke: #8a5a1e"/>
    </g>
   </g>
   <g id="line2d_22">
    <defs>
     <path id="mba018b579c" d="M 0 3 
C 0.795609 3 1.55874 2.683901 2.12132 2.12132 
C 2.683901 1.55874 3 0.795609 3 0 
C 3 -0.795609 2.683901 -1.55874 2.12132 -2.12132 
C 1.55874 -2.683901 0.795609 -3 0 -3 
C -0.795609 -3 -1.55874 -2.683901 -2.12132 -2.12132 
C -2.683901 -1.55874 -3 -0.795609 -3 0 
C -3 0.795609 -2.683901 1.55874 -2.12132 2.12132 
C -1.55874 2.683901 -0.795609 3 0 3 
z
" style="stroke: #3d6aa2"/>
    </defs>
    <g clip-path="url(#p365b8bffee)">
     <use xlink:href="#mba018b579c" x="98.717523" y="80.369498" style="fill: #3d6aa2; stroke: #3d6aa2"/>
    </g>
   </g>
   <g id="line2d_23">
    <defs>
     <path id="m052351310f" d="M 0 3 
C 0.795609 3 1.55874 2.683901 2.12132 2.12132 
C 2.683901 1.55874 3 0.795609 3 0 
C 3 -0.795609 2.683901 -1.55874 2.12132 -2.12132 
C 1.55874 -2.683901 0.795609 -3 0 -3 
C -0.795609 -3 -1.55874 -2.683901 -2.12132 -2.12132 
C -2.683901 -1.55874 -3 -0.795609 -3 0 
C -3 0.795609 -2.683901 1.55874 -2.12132 2.12132 
C -1.55874 2.683901 -0.795609 3 0 3 
z
" style="stroke: #4f8055"/>
    </defs>
    <g clip-path="url(#p365b8bffee)">
     <use xlink:href="#m052351310f" x="156.696701" y="80.770355" style="fill: #4f8055; stroke: #4f8055"/>
    </g>
   </g>
   <g id="PathCollection_2">
    <defs>
     <path id="ma17173398a" d="M 0 2.061553 
C 0.54673 2.061553 1.071141 1.844335 1.457738 1.457738 
C 1.844335 1.071141 2.061553 0.54673 2.061553 0 
C 2.061553 -0.54673 1.844335 -1.071141 1.457738 -1.457738 
C 1.071141 -1.844335 0.54673 -2.061553 0 -2.061553 
C -0.54673 -2.061553 -1.071141 -1.844335 -1.457738 -1.457738 
C -1.844335 -1.071141 -2.061553 -0.54673 -2.061553 0 
C -2.061553 0.54673 -1.844335 1.071141 -1.457738 1.457738 
C -1.071141 1.844335 -0.54673 2.061553 0 2.061553 
z
" style="stroke: #8a5a1e; stroke-opacity: 0.48"/>
    </defs>
    <g clip-path="url(#p365b8bffee)">
     <use xlink:href="#ma17173398a" x="36.679804" y="36.195066" style="fill: #8a5a1e; fill-opacity: 0.48; stroke: #8a5a1e; stroke-opacity: 0.48"/>
     <use xlink:href="#ma17173398a" x="40.738346" y="39.802778" style="fill: #8a5a1e; fill-opacity: 0.48; stroke: #8a5a1e; stroke-opacity: 0.48"/>
     <use xlink:href="#ma17173398a" x="44.796889" y="35.473524" style="fill: #8a5a1e; fill-opacity: 0.48; stroke: #8a5a1e; stroke-opacity: 0.48"/>
    </g>
   </g>
   <g id="PathCollection_3">
    <defs>
     <path id="mcf6b8db303" d="M 0 2.061553 
C 0.54673 2.061553 1.071141 1.844335 1.457738 1.457738 
C 1.844335 1.071141 2.061553 0.54673 2.061553 0 
C 2.061553 -0.54673 1.844335 -1.071141 1.457738 -1.457738 
C 1.071141 -1.844335 0.54673 -2.061553 0 -2.061553 
C -0.54673 -2.061553 -1.071141 -1.844335 -1.457738 -1.457738 
C -1.844335 -1.071141 -2.061553 -0.54673 -2.061553 0 
C -2.061553 0.54673 -1.844335 1.071141 -1.457738 1.457738 
C -1.071141 1.844335 -0.54673 2.061553 0 2.061553 
z
" style="stroke: #3d6aa2; stroke-opacity: 0.48"/>
    </defs>
    <g clip-path="url(#p365b8bffee)">
     <use xlink:href="#mcf6b8db303" x="92.919606" y="80.930698" style="fill: #3d6aa2; fill-opacity: 0.48; stroke: #3d6aa2; stroke-opacity: 0.48"/>
     <use xlink:href="#mcf6b8db303" x="95.238773" y="83.095325" style="fill: #3d6aa2; fill-opacity: 0.48; stroke: #3d6aa2; stroke-opacity: 0.48"/>
     <use xlink:href="#mcf6b8db303" x="97.55794" y="77.804014" style="fill: #3d6aa2; fill-opacity: 0.48; stroke: #3d6aa2; stroke-opacity: 0.48"/>
     <use xlink:href="#mcf6b8db303" x="99.877107" y="81.892755" style="fill: #3d6aa2; fill-opacity: 0.48; stroke: #3d6aa2; stroke-opacity: 0.48"/>
     <use xlink:href="#mcf6b8db303" x="102.196274" y="78.766071" style="fill: #3d6aa2; fill-opacity: 0.48; stroke: #3d6aa2; stroke-opacity: 0.48"/>
     <use xlink:href="#mcf6b8db303" x="104.515441" y="79.728127" style="fill: #3d6aa2; fill-opacity: 0.48; stroke: #3d6aa2; stroke-opacity: 0.48"/>
    </g>
   </g>
   <g id="PathCollection_4">
    <defs>
     <path id="mf24995ab28" d="M 0 2.061553 
C 0.54673 2.061553 1.071141 1.844335 1.457738 1.457738 
C 1.844335 1.071141 2.061553 0.54673 2.061553 0 
C 2.061553 -0.54673 1.844335 -1.071141 1.457738 -1.457738 
C 1.071141 -1.844335 0.54673 -2.061553 0 -2.061553 
C -0.54673 -2.061553 -1.071141 -1.844335 -1.457738 -1.457738 
C -1.844335 -1.071141 -2.061553 -0.54673 -2.061553 0 
C -2.061553 0.54673 -1.844335 1.071141 -1.457738 1.457738 
C -1.071141 1.844335 -0.54673 2.061553 0 2.061553 
z
" style="stroke: #4f8055; stroke-opacity: 0.48"/>
    </defs>
    <g clip-path="url(#p365b8bffee)">
     <use xlink:href="#mf24995ab28" x="152.638158" y="81.892755" style="fill: #4f8055; fill-opacity: 0.48; stroke: #4f8055; stroke-opacity: 0.48"/>
     <use xlink:href="#mf24995ab28" x="156.696701" y="79.728127" style="fill: #4f8055; fill-opacity: 0.48; stroke: #4f8055; stroke-opacity: 0.48"/>
     <use xlink:href="#mf24995ab28" x="160.755243" y="80.690184" style="fill: #4f8055; fill-opacity: 0.48; stroke: #4f8055; stroke-opacity: 0.48"/>
    </g>
   </g>
   <g id="PathCollection_5">
    <defs>
     <path id="m54c8f3c26b" d="M 0 2.061553 
C 0.54673 2.061553 1.071141 1.844335 1.457738 1.457738 
C 1.844335 1.071141 2.061553 0.54673 2.061553 0 
C 2.061553 -0.54673 1.844335 -1.071141 1.457738 -1.457738 
C 1.071141 -1.844335 0.54673 -2.061553 0 -2.061553 
C -0.54673 -2.061553 -1.071141 -1.844335 -1.457738 -1.457738 
C -1.844335 -1.071141 -2.061553 -0.54673 -2.061553 0 
C -2.061553 0.54673 -1.844335 1.071141 -1.457738 1.457738 
C -1.071141 1.844335 -0.54673 2.061553 0 2.061553 
z
" style="stroke: #6a7787; stroke-opacity: 0.48"/>
    </defs>
    <g clip-path="url(#p365b8bffee)">
     <use xlink:href="#m54c8f3c26b" x="214.675878" y="121.337075" style="fill: #6a7787; fill-opacity: 0.48; stroke: #6a7787; stroke-opacity: 0.48"/>
    </g>
   </g>
  </g>
 </g>
 <defs>
  <clipPath id="p365b8bffee">
   <rect x="27.78" y="1.08" width="195.795682" height="127.4725"/>
  </clipPath>
 </defs>
</svg>
